<svg width="24" height="24" viewBox="0 0 24 24" fill="none" xmlns="http://www.w3.org/2000/svg">
<path d="M18.7301 14.6701L14.5801 18.8201C14.4201 18.9801 14.2701 19.2901 14.2301 19.5101L14.0001 21.1001C13.9201 21.6701 14.3201 22.0801 14.8901 21.9901L16.4801 21.7601C16.7001 21.7301 17.0101 21.5701 17.1701 21.4101L21.3201 17.2601C22.0301 16.5501 22.3701 15.7101 21.3201 14.6601C20.2801 13.6201 19.4501 13.9501 18.7301 14.6701Z" fill="#292D32"/>
<path d="M18.14 15.2598C18.49 16.5198 19.48 17.4998 20.74 17.8598L18.14 15.2598Z" fill="#292D32"/>
<path d="M2.03001 14.6299C2.03001 14.6599 2.01001 14.6999 2.01001 14.7299C2.93001 16.5699 4.43001 18.0799 6.27001 18.9899C6.30001 18.9899 6.34001 18.9699 6.37001 18.9699C6.03001 17.8099 5.77001 16.6199 5.58001 15.4299C4.38001 15.2299 3.19001 14.9699 2.03001 14.6299Z" fill="#292D32"/>
<path d="M19.07 6.43043C18.13 4.46043 16.54 2.87043 14.58 1.94043C14.94 3.13043 15.24 4.35043 15.44 5.57043C16.66 5.77043 17.88 6.06043 19.07 6.43043Z" fill="#292D32"/>
<path d="M1.93005 6.42953C3.13005 6.06953 4.35005 5.76953 5.57005 5.56953C5.77005 4.37953 6.02005 3.19953 6.36005 2.03953C6.33005 2.03953 6.29005 2.01953 6.26005 2.01953C4.38005 2.94953 2.85005 4.51953 1.93005 6.42953Z" fill="#292D32"/>
<path d="M13.8201 5.36C13.5801 4.06 13.2801 2.76 12.8501 1.5C12.8301 1.43 12.8301 1.37 12.8201 1.29C12.0801 1.11 11.3001 1 10.5001 1C9.69005 1 8.92005 1.11 8.17005 1.3C8.16005 1.37 8.17005 1.43 8.15005 1.51C7.73005 2.77 7.42005 4.06 7.18005 5.36C9.39005 5.12 11.6101 5.12 13.8201 5.36Z" fill="#292D32"/>
<path d="M5.36 7.17969C4.05 7.41969 2.77 7.72969 1.5 8.14969C1.43 8.16969 1.37 8.16969 1.3 8.17969C1.11 8.91969 1 9.69969 1 10.4997C1 11.3097 1.11 12.0797 1.3 12.8297C1.37 12.8397 1.43 12.8297 1.51 12.8497C2.77 13.2697 4.06 13.5797 5.37 13.8197C5.12 11.6097 5.12 9.38969 5.36 7.17969Z" fill="#292D32"/>
<path d="M19.7 8.17969C19.63 8.17969 19.57 8.16969 19.49 8.14969C18.23 7.72969 16.93 7.41969 15.63 7.17969C15.88 9.38969 15.88 11.6097 15.63 13.8097C16.93 13.5697 18.23 13.2697 19.49 12.8397C19.56 12.8197 19.62 12.8297 19.7 12.8197C19.88 12.0697 20 11.2997 20 10.4897C20 9.69969 19.89 8.92969 19.7 8.17969Z" fill="#292D32"/>
<path d="M7.18005 15.6399C7.42005 16.9499 7.72005 18.2399 8.15005 19.4999C8.17005 19.5699 8.16005 19.6299 8.17005 19.7099C8.92005 19.8899 9.69005 19.9999 10.5001 19.9999C11.3001 19.9999 12.0801 19.8899 12.8201 19.6999C12.8301 19.6299 12.8301 19.5699 12.8501 19.4899C13.2701 18.2299 13.5801 16.9399 13.8201 15.6299C12.7201 15.7499 11.6101 15.8399 10.5001 15.8399C9.39005 15.8399 8.28005 15.7599 7.18005 15.6399Z" fill="#292D32"/>
<path d="M6.94998 6.94961C6.64998 9.30961 6.64998 11.6896 6.94998 14.0596C9.30998 14.3596 11.69 14.3596 14.06 14.0596C14.36 11.6996 14.36 9.31961 14.06 6.94961C11.69 6.64961 9.30998 6.64961 6.94998 6.94961Z" fill="#292D32"/>
</svg>
