<svg width="24" height="24" viewBox="0 0 24 24" fill="none" xmlns="http://www.w3.org/2000/svg">
<path d="M15 22.7502C14.73 22.7502 14.48 22.6002 14.35 22.3702C14.22 22.1302 14.22 21.8502 14.36 21.6102L15.41 19.8602C15.62 19.5102 16.08 19.3902 16.44 19.6002C16.8 19.8102 16.91 20.2702 16.7 20.6302L16.43 21.0802C19.19 20.4302 21.26 17.9502 21.26 14.9902C21.26 14.5802 21.6 14.2402 22.01 14.2402C22.42 14.2402 22.76 14.5802 22.76 14.9902C22.75 19.2702 19.27 22.7502 15 22.7502Z" fill="#37479D"/>
<path d="M2 9.75C1.59 9.75 1.25 9.41 1.25 9C1.25 4.73 4.73 1.25 9 1.25C9.27 1.25 9.52 1.4 9.65 1.63C9.78 1.87 9.78 2.15 9.64 2.39L8.59 4.14C8.38 4.49 7.92 4.61 7.56 4.39C7.21 4.18 7.09 3.72 7.31 3.36L7.58 2.91C4.81 3.56 2.75 6.04 2.75 9C2.75 9.41 2.41 9.75 2 9.75Z" fill="#37479D"/>
<path d="M16.4 8.20996L12.64 6.17996C12.24 5.96996 11.77 5.96996 11.37 6.17996L7.6 8.20996C7.33 8.35996 7.16 8.64996 7.16 8.96996C7.16 9.29996 7.33 9.58996 7.6 9.73996L11.36 11.77C11.56 11.88 11.78 11.93 12 11.93C12.22 11.93 12.44 11.88 12.64 11.77L16.4 9.73996C16.67 9.58996 16.84 9.29996 16.84 8.96996C16.84 8.64996 16.67 8.35996 16.4 8.20996Z" fill="#37479D"/>
<path d="M10.74 12.4704L7.24 10.7204C6.97 10.5904 6.66 10.6004 6.4 10.7604C6.15 10.9204 6 11.1904 6 11.4904V14.8004C6 15.3704 6.32 15.8904 6.83 16.1404L10.33 17.8904C10.45 17.9504 10.58 17.9804 10.72 17.9804C10.88 17.9804 11.03 17.9404 11.17 17.8504C11.43 17.6904 11.58 17.4204 11.58 17.1204V13.8104C11.57 13.2404 11.26 12.7304 10.74 12.4704Z" fill="#37479D"/>
<path d="M17.59 10.7604C17.33 10.6004 17.02 10.5904 16.75 10.7204L13.25 12.4704C12.74 12.7304 12.42 13.2404 12.42 13.8104V17.1204C12.42 17.4204 12.57 17.6904 12.83 17.8504C12.97 17.9404 13.12 17.9804 13.28 17.9804C13.41 17.9804 13.54 17.9504 13.67 17.8904L17.17 16.1404C17.68 15.8804 18 15.3704 18 14.8004V11.4904C18 11.1904 17.85 10.9204 17.59 10.7604Z" fill="#37479D"/>
</svg>
