<svg width="24" height="24" viewBox="0 0 24 24" fill="none" xmlns="http://www.w3.org/2000/svg">
<path d="M12 14.3801C13.3144 14.3801 14.38 13.3146 14.38 12.0001C14.38 10.6857 13.3144 9.62012 12 9.62012C10.6856 9.62012 9.62 10.6857 9.62 12.0001C9.62 13.3146 10.6856 14.3801 12 14.3801Z" fill="#37479D"/>
<path d="M20 18.7503C19.84 18.7503 19.69 18.7003 19.55 18.6003C19.22 18.3503 19.15 17.8803 19.4 17.5503C20.61 15.9403 21.25 14.0203 21.25 12.0003C21.25 9.98027 20.61 8.06027 19.4 6.45027C19.15 6.12027 19.22 5.65027 19.55 5.40027C19.88 5.15027 20.35 5.22027 20.6 5.55027C22.01 7.42027 22.75 9.65027 22.75 12.0003C22.75 14.3503 22.01 16.5803 20.6 18.4503C20.45 18.6503 20.23 18.7503 20 18.7503Z" fill="#37479D"/>
<path d="M4 18.7503C3.77 18.7503 3.55 18.6503 3.4 18.4503C1.99 16.5803 1.25 14.3503 1.25 12.0003C1.25 9.65027 1.99 7.42027 3.4 5.55027C3.65 5.22027 4.12 5.15027 4.45 5.40027C4.78 5.65027 4.85 6.12027 4.6 6.45027C3.39 8.06027 2.75 9.98027 2.75 12.0003C2.75 14.0203 3.39 15.9403 4.6 17.5503C4.85 17.8803 4.78 18.3503 4.45 18.6003C4.32 18.7003 4.16 18.7503 4 18.7503Z" fill="#37479D"/>
<path d="M16.8 16.3497C16.64 16.3497 16.49 16.2997 16.35 16.1997C16.02 15.9497 15.95 15.4797 16.2 15.1497C16.89 14.2397 17.25 13.1497 17.25 11.9997C17.25 10.8497 16.89 9.75969 16.2 8.84969C15.95 8.51969 16.02 8.04969 16.35 7.79969C16.68 7.54969 17.15 7.61969 17.4 7.94969C18.28 9.12969 18.75 10.5297 18.75 11.9997C18.75 13.4697 18.28 14.8797 17.4 16.0497C17.25 16.2497 17.03 16.3497 16.8 16.3497Z" fill="#37479D"/>
<path d="M7.2 16.3497C6.97 16.3497 6.75 16.2497 6.6 16.0497C5.72 14.8797 5.25 13.4697 5.25 11.9997C5.25 10.5297 5.72 9.11969 6.6 7.94969C6.85 7.61969 7.32 7.54969 7.65 7.79969C7.98 8.04969 8.05 8.51969 7.8 8.84969C7.11 9.75969 6.75 10.8497 6.75 11.9997C6.75 13.1497 7.11 14.2397 7.8 15.1497C8.05 15.4797 7.98 15.9497 7.65 16.1997C7.52 16.2997 7.36 16.3497 7.2 16.3497Z" fill="#37479D"/>
</svg>
