<svg width="24" height="24" viewBox="0 0 24 24" fill="none" xmlns="http://www.w3.org/2000/svg">
<path d="M20.21 7.82043L12.51 12.2804C12.2 12.4604 11.81 12.4604 11.49 12.2804L3.79 7.82043C3.24 7.50043 3.1 6.75043 3.52 6.28043C3.81 5.95043 4.14 5.68043 4.49 5.49043L9.91 2.49043C11.07 1.84043 12.95 1.84043 14.11 2.49043L19.53 5.49043C19.88 5.68043 20.21 5.96043 20.5 6.28043C20.9 6.75043 20.76 7.50043 20.21 7.82043Z" fill="#37479D"/>
<path d="M11.43 14.1399V20.9599C11.43 21.7199 10.66 22.2199 9.98001 21.8899C7.92001 20.8799 4.45001 18.9899 4.45001 18.9899C3.23001 18.2999 2.23001 16.5599 2.23001 15.1299V9.96988C2.23001 9.17988 3.06001 8.67988 3.74001 9.06988L10.93 13.2399C11.23 13.4299 11.43 13.7699 11.43 14.1399Z" fill="#37479D"/>
<path d="M12.57 14.1399V20.9599C12.57 21.7199 13.34 22.2199 14.02 21.8899C16.08 20.8799 19.55 18.9899 19.55 18.9899C20.77 18.2999 21.77 16.5599 21.77 15.1299V9.96988C21.77 9.17988 20.94 8.67988 20.26 9.06988L13.07 13.2399C12.77 13.4299 12.57 13.7699 12.57 14.1399Z" fill="#37479D"/>
</svg>
