<svg width="18" height="10" viewBox="0 0 18 10" fill="none" xmlns="http://www.w3.org/2000/svg">
<path d="M17.3414 1C17.3414 0.73461 17.1092 0.519468 16.8227 0.519468L12.154 0.519469C11.8675 0.519469 11.6353 0.73461 11.6353 1C11.6353 1.26539 11.8675 1.48053 12.154 1.48053L16.304 1.48053L16.3039 5.32478C16.304 5.59017 16.5362 5.80531 16.8227 5.80531C17.1092 5.80531 17.3414 5.59017 17.3414 5.32478L17.3414 1ZM9.63292 8.33979L17.1895 1.33979L16.4559 0.660213L8.89931 7.66021L9.63292 8.33979Z" fill="url(#paint0_linear_64_1033)"/>
<path d="M9.26597 7.5L5.48768 4.5L0.629883 9.5" stroke="url(#paint1_linear_64_1033)"/>
<defs>
<linearGradient id="paint0_linear_64_1033" x1="9.26611" y1="8" x2="18.9053" y2="5.58263" gradientUnits="userSpaceOnUse">
<stop stop-color="#133FDB"/>
<stop offset="1" stop-color="#B7004D" stop-opacity="0.3"/>
</linearGradient>
<linearGradient id="paint1_linear_64_1033" x1="0.629883" y1="4.5" x2="10.029" y2="5.48183" gradientUnits="userSpaceOnUse">
<stop stop-color="#133FDB"/>
<stop offset="1" stop-color="#B7004D" stop-opacity="0.3"/>
</linearGradient>
</defs>
</svg>
